<svg viewBox="135.9936548223351 338.98750000000007 280.62182741116754 187.525" xmlns="http://www.w3.org/2000/svg" overflow="visible" xmlns:xlink="http://www.w3.org/1999/xlink" width="580.62182741116754px" height="400px"><g id="Master/Character/Torso" stroke="none" stroke-width="1" fill="none" fill-rule="evenodd"><g id="Torso" transform="translate(139.000000, 391.000000) scale(1 1)"><g id="Torso/Shrug" stroke="none" stroke-width="1" fill="none" fill-rule="evenodd"><g id="Group" transform="translate(46.967100, 28.404926)" fill="#FFF"><path d="M106.4469,50.3683738 C94.5368998,50.3683738 82.6258998,50.3673738 70.7158998,50.3713738 C69.5958998,50.3723738 68.4738998,50.3683738 67.3598998,50.4513738 C66.3148998,50.5283738 65.6358998,51.0453738 65.3368998,52.1533738 C64.1708998,56.4663738 62.9978998,60.7793738 61.7128998,65.0573738 C58.7948998,74.7763738 55.8158998,84.4773738 52.8458998,94.1813738 C51.9498998,97.1133738 51.9268998,97.1043738 48.9668998,97.3473738 C47.4558998,97.4713738 45.9458998,97.6903738 44.4338998,97.7103738 C42.6288998,97.7343738 42.3798998,97.4343738 42.2898998,95.6313738 C42.1088998,92.0003738 42.6108998,88.4423738 43.6578998,84.9803738 C45.2318998,79.7713738 45.6598998,74.4603738 45.0688998,69.0883738 C44.7238998,65.9573738 44.6888998,62.8703738 45.3178998,59.7913738 C45.6368998,58.2283738 46.0798998,56.6893738 46.4628998,55.1393738 C46.5958998,54.5973738 46.8678998,54.0353738 46.8018998,53.5163738 C46.7428998,53.0463738 46.3938998,52.3783738 46.0168998,52.2483738 C45.6448998,52.1193738 45.0388998,52.4933738 44.6118998,52.7663738 C44.3818998,52.9143738 44.3008998,53.3083738 44.1738998,53.6003738 C42.4498998,57.5473738 40.7528998,61.5053738 39.0038998,65.4403738 C37.4778998,68.8713738 35.9448998,72.3023738 34.3178998,75.6853738 C33.3858998,77.6233738 32.3418998,79.5193738 31.2028998,81.3443738 C28.8138998,85.1733738 24.8328998,85.8933738 20.8888998,84.1893738 C16.7688998,82.4073738 13.5548998,79.3953738 11.3868998,75.3873738 C8.71889975,70.4513738 7.45289975,65.1203738 6.95589975,59.5753738 C6.66689975,56.3463738 5.23670975,50.0663738 3.74770975,47.1963738 C3.04770975,45.8483738 2.34370975,44.5003738 1.71170975,43.1203738 C-0.0312902515,39.3143738 0.281709748,35.5123738 1.82470975,31.7303738 C2.30170975,30.5583738 3.12670975,29.8523738 4.33270975,29.3503738 C8.90570975,27.4473738 13.4367097,25.4423738 17.9677097,23.4403738 C20.2397097,22.4373738 21.2097097,22.7043738 21.9917097,25.0463738 C23.3617097,29.1493738 25.0138998,36.5603738 24.1068998,40.9823738 C23.9658998,41.6743738 23.9058998,42.4583738 24.0948998,43.1173738 C24.2428998,43.6273738 24.8388998,44.0103738 25.2348998,44.4493738 C25.6578998,44.0413738 26.3168998,43.7013738 26.4578998,43.2113738 C26.7858998,42.0703738 26.7628998,40.8293738 27.0698998,39.6803738 C27.4338998,38.3173738 27.7618998,36.8553738 28.5148998,35.7043738 C30.6588998,32.4273738 31.9858998,28.9393738 32.5458998,25.0463738 C32.8808998,22.7113738 33.6758998,20.4023738 34.5658998,18.2033738 C35.0518998,17.0013738 36.0918998,15.9813738 37.0208998,15.0153738 C37.7598998,14.2463738 38.7308998,13.8273738 39.8478998,14.4343738 C40.6598998,14.8753738 41.3018998,14.5543738 42.0418998,14.0753738 C43.3028998,13.2573738 44.6338998,12.4983738 46.0278998,11.9403738 C51.0238998,9.94237382 56.2718998,8.86337382 61.5478998,7.91537382 C62.1738998,7.80337382 62.8228998,7.82837382 63.4578998,7.76337382 C65.4168998,7.55837382 66.9138998,8.06037382 68.1708998,9.80937382 C70.0818998,12.4703738 72.3488998,14.8563738 75.2928998,16.4753738 C79.8268998,18.9693738 84.4508998,19.8393738 89.2088998,17.1653738 C91.9298998,15.6363738 93.9358998,13.3333738 95.3028998,10.5663738 C96.1668998,8.82037382 97.3208998,7.66137382 99.1348998,6.88937382 C101.1839,6.01737382 103.0449,4.71237382 105.0519,3.73137382 C109.4699,1.57237382 114.0779,0.179373817 119.0669,0.0113738167 C124.5239,-0.172626183 129.0619,1.88837382 133.0819,5.28537382 C136.6279,8.28337382 139.1609,12.0473738 140.7229,16.4323738 C143.4899,24.1983738 145.6399,32.1353738 147.4399,40.1763738 C148.0489,42.8953738 148.0069,45.5523738 147.3669,48.2393738 C146.9119,50.1483738 146.8149,50.3163738 144.8169,50.3313738 C139.7019,50.3683738 134.5859,50.3553738 129.4689,50.3563738 C121.7959,50.3593738 114.1219,50.3573738 106.4469,50.3573738 L106.4469,50.3683738 Z" id="Fill-4"/><path d="M153.167105,82.3399738 C149.304182,81.9797555 145.662086,81.3417417 142.625451,78.8944959 C140.350826,77.0618599 140.211902,76.6568687 141.126314,73.8880721 C143.37191,67.0836094 145.62891,60.283217 147.87347,53.4777367 C148.178274,52.5507343 148.519364,51.6196616 148.670729,50.6631497 C148.765073,50.0709264 148.759889,49.230417 148.407395,48.8447595 C147.357169,47.6949102 147.557262,46.525727 147.825779,45.1988212 C148.146134,43.6165063 148.13473,41.9680497 148.467526,40.38777 C149.017003,37.767538 149.502201,35.0994804 150.42387,32.5983036 C151.567403,29.4977805 152.101328,26.3372211 152.489072,23.0993266 C152.874742,19.8777132 153.348536,16.6571174 154.005834,13.4802769 C154.579155,10.7063924 156.035786,8.36497345 158.370543,6.57914542 C159.766005,5.51171887 161.118962,4.98360221 162.944675,5.60635249 C166.225982,6.72669247 169.5612,7.70355566 172.904712,8.63869865 C175.7651,9.43952296 178.645186,10.1955744 181.5543,10.7979733 C184.784807,11.4675316 187.408816,14.61181 186.366884,17.6044711 C183.698295,25.2657242 183.356168,33.4418656 180.717645,41.0705566 C179.178074,45.5213896 177.237282,49.8440092 175.377356,54.1839274 C173.707155,58.0781518 171.875222,61.9041993 170.165624,65.7831603 C168.414557,69.75879 166.360759,73.5614334 163.48482,76.8664872 C160.754026,80.0036427 157.408441,82.1069512 153.167105,82.3399738" id="Fill-8"/><path d="M2.34156855,27.107441 C1.72956855,24.7472542 1.93056855,24.1333673 3.83256855,23.1153877 C6.87756855,21.4847132 9.94756855,19.9243675 13.0075686,18.3330295 C14.0855686,17.7727832 15.1625686,17.2113448 16.3425686,16.5950738 C16.5845686,17.232801 18.4651213,20.9604022 18.5691213,21.3907191 C19.3371213,24.5388268 17.9000819,22.9175531 15.3310819,24.2919446 C11.9960819,26.0740048 8.34056855,26.2634954 4.96956855,27.9490025 C4.34456855,28.262502 3.64956855,28.3757433 2.94456855,28.5950738 C2.67456855,27.9394664 2.45556855,27.5425259 2.34156855,27.107441 Z" id="Fill-18"/><path d="M164.4801,4.31557382 C164.4181,1.67157382 164.8211,1.27757382 167.1091,1.83157382 C171.5281,2.90157382 175.9391,4.00357382 180.3451,5.12157382 C182.2921,5.61557382 182.5401,6.14457382 182.0221,7.98257382 C181.6961,9.13957382 181.0511,9.55457382 179.8981,9.23357382 C178.3621,8.80757382 176.8041,8.44857382 175.2831,7.97157382 C172.1651,6.99457382 169.0621,5.96357382 165.9591,4.93857382 C165.4391,4.76657382 164.9461,4.51357382 164.4801,4.31557382" id="Fill-20"/></g><path d="M147.5751,105.307 C144.4261,105.246 142.1861,103.135 141.9071,100.349 C141.6201,97.496 143.3631,94.238 145.9751,93.045 C146.7171,92.706 147.7101,92.552 148.4911,92.733 C151.0631,93.328 152.9751,96.109 153.0701,99.101 C153.1561,101.823 151.6401,104.06 149.0301,104.985 C148.4381,105.195 147.7961,105.26 147.5751,105.307" id="Fill-30" fill="#000"/><path d="M159.770789,24.8535221 C154.877774,25.7437211 149.767774,27.8830319 147.741848,29.4078033 L147.58023,29.5334051 C146.266644,30.589636 144.294511,31.417635 141.662424,31.9937548 C141.316229,32.069531 141.035999,32.3228784 140.92581,32.6597037 C138.787894,39.194904 135.202043,42.6606502 130.108351,43.2413306 C125.027323,43.8205673 119.574904,40.216953 113.788489,32.2514556 C113.579273,31.9634522 113.232728,31.8083797 112.87857,31.8442833 C106.917369,32.4486126 101.785186,33.3077465 97.479294,34.4239143 L96.7977048,34.6054957 C92.9676876,35.6538547 89.687172,37.032062 86.9577346,38.7445183 L86.814,38.836 L86.6988747,38.8195927 C83.3111108,38.3940793 80.5576759,40.4520611 78.5808724,44.1520662 C77.116753,46.8924747 76.1537741,50.5157643 76.0243811,53.1064616 L76.001773,53.7078722 C75.8770125,55.7087226 74.6806388,58.0341634 72.3749305,60.6572098 L72.277,60.766 L72.2573469,60.6315135 C71.4031582,55.1088889 69.9608973,51.68711 67.7812849,50.3343239 C67.5135374,50.1681452 67.1831226,50.1378951 66.8896511,50.2526929 L48.2268386,57.5530658 C48.0515769,57.6216233 47.8992179,57.7382452 47.7872758,57.8895257 C45.3070048,61.2414027 44.4131611,64.6292996 44.8174601,68.2413501 C45.0989578,70.7562805 45.8245109,72.8820217 47.4410869,76.4417325 L48.6212314,79.0146735 C50.0382252,82.1498774 50.5020026,83.5119437 50.6900725,85.2222072 L50.7079855,85.3944727 C51.9008926,97.5433945 57.2224619,108.965553 66.7278445,113.188996 L66.9694918,113.292765 C74.3015961,116.331963 81.2418717,109.243825 87.9796195,92.5385523 L88.246,91.869 C88.4838919,93.7268089 88.768138,95.5787696 89.1004201,97.4308008 C89.6525222,100.508037 89.5218974,104.016942 88.6996746,107.958815 L88.599883,108.301815 C87.6408962,111.670668 86.8462664,116.581329 86.2228932,122.994008 L86.116,124.124 L85.9098595,124.125723 C80.0269298,124.192572 75.7051483,124.789113 73.2164391,125.752093 C70.4396807,126.826531 69.7942454,129.020065 72.394456,129.878893 C74.4010015,130.541639 109.359955,130.541639 180.090579,129.92931 L180.207177,129.921507 C180.590583,129.873263 180.916456,129.606356 181.035249,129.231286 L187.872,107.643 L194.941235,111.616652 L195.049875,111.669348 C205.663606,116.047195 214.994105,107.568139 223.049217,91.0045194 C225.178921,86.625237 227.073741,81.9574476 228.762736,77.1670689 C229.24255,75.8062056 229.679506,74.5101388 230.09436,73.2311853 L230.691211,71.3544969 L231.254436,69.5591703 C231.496629,68.749841 231.756597,67.5297995 232.101134,65.6549086 L233.4579,58.0143205 L233.683352,56.8139266 C234.239553,53.9064119 234.751488,51.6368569 235.275848,49.8608769 L235.461524,49.2543198 C236.904553,44.7130708 235.236663,41.1860594 230.65448,38.9844261 L230.489225,38.9223137 L227.183652,37.9940144 L224.710069,37.2914118 C223.889647,37.0572478 223.075376,36.823661 222.2734,36.5922717 L219.054946,35.6556253 C216.521744,34.9112541 214.396301,34.2675383 212.785907,33.7530113 L211.882335,33.4600261 C207.681826,32.07481 204.329243,33.3779565 202.123711,37.2483347 C201.376079,38.5098283 200.764973,39.8608921 200.279463,41.2930206 L200.091068,41.8652121 C199.281659,44.4026927 198.97818,46.4930624 198.694596,50.4663495 L198.537775,52.7693281 C198.391909,54.7356899 198.237049,55.7088916 197.936086,56.4035353 L197.813942,56.6711695 L197.637989,57.0847274 C197.019904,58.6103397 196.377931,60.9571432 195.704517,64.1413807 L195.484,65.205 L195.448194,65.00344 C192.189699,47.24379 186.925561,35.3267081 179.578849,29.248599 C174.076984,24.6967753 167.203679,23.501237 159.770789,24.8535221 Z M178.303954,30.7895863 C185.77552,36.9709899 191.111591,49.9372291 194.215585,69.6856703 L194.44221,71.1663101 C194.611897,72.2900443 196.226526,72.3049094 196.416874,71.1844898 L196.681728,69.6557069 C197.734194,63.7020574 198.70248,59.6877905 199.559839,57.6703327 L199.7017,57.3525886 C200.188725,56.3177245 200.374481,55.1706806 200.551695,52.6515583 L200.658772,51.0482087 C200.961053,46.652647 201.260629,44.6281102 202.173577,41.93515 C202.615747,40.6308643 203.169681,39.4061983 203.852862,38.2531974 C205.549979,35.2752927 207.834883,34.3244973 210.99094,35.2757409 L212.504436,35.7622241 C213.975475,36.2281951 215.824955,36.788562 217.986713,37.4260288 L219.349517,37.826031 L222.932662,38.8630722 L227.651996,40.2042845 L229.86,40.822 L229.78832,40.7871366 C233.409025,42.5268023 234.629397,44.966591 233.63235,48.3959438 L233.361179,49.2827356 C232.813721,51.134326 232.288774,53.459947 231.720943,56.4277547 L231.275617,58.8442775 L230.257911,64.6117219 C229.84596,66.9032374 229.554007,68.3003319 229.308846,69.0823901 L228.495802,71.6681136 C227.995338,73.2412484 227.468949,74.8218306 226.876542,76.5020333 C225.210982,81.2259452 223.34375,85.8257731 221.250625,90.1298396 L221.021322,90.5983937 L220.57025,91.5029249 C213.185039,106.126616 204.935039,113.362445 196.089007,109.931109 L195.863,109.841 L187.780374,105.297824 L187.67515,105.246368 C187.142071,105.022834 186.516642,105.300756 186.337099,105.867637 L179.347,127.935 L159.103425,128.100126 C105.695733,128.504652 76.4770172,128.469436 73.2612081,128.026917 L73.11,128.001 C73.3097938,127.889166 73.5827695,127.754848 73.9381724,127.617328 C76.308592,126.700119 80.7994205,126.119436 87.0311371,126.119436 C87.5496603,126.119436 87.9821682,125.723096 88.027336,125.206544 C88.6855979,117.678472 89.5589425,112.084899 90.6373609,108.447239 C91.4868299,104.390633 91.6543623,100.783739 91.1497232,97.5585366 L91.0689872,97.0776104 C90.4979553,93.8948658 90.0714695,90.7129494 89.7894946,87.5317802 C89.6951048,86.4668986 88.2204064,86.2730165 87.8539769,87.2773131 C80.8647526,106.433124 74.0098902,114.236029 67.5399334,111.36129 C58.9833877,107.559435 53.972735,97.0126788 52.7492224,85.6917173 L52.6554995,84.8059486 C52.4139093,82.8074226 51.8473569,81.2558392 50.1652865,77.5784671 L49.456089,76.0384547 L49.0960202,75.2381314 C46.0192213,68.2855953 45.7041177,64.3840117 49.0057235,59.6221402 L49.227,59.309 L67.106,52.315 L67.2187124,52.4169947 C68.7406274,53.8553946 69.9108532,57.4245494 70.5706205,63.0905812 C70.6672229,63.9201953 71.6780773,64.272825 72.2697349,63.6833057 C76.0126278,59.9539393 77.9504267,56.5796248 78.0112112,53.508912 C78.1354033,47.2349793 82.0439467,39.9193153 86.8372198,40.8667992 C87.0944587,40.9176475 87.3613778,40.8654234 87.5804842,40.7213756 C90.3629831,38.8920696 93.8291363,37.4362055 97.9811448,36.3599272 L98.6172524,36.1985029 C102.24475,35.2973424 106.47126,34.5725975 111.295125,34.0256233 L112.512,33.893 L112.796932,34.2745092 C118.74525,42.1793879 124.579994,45.8845167 130.334883,45.2284599 L130.669465,45.1865096 C136.21447,44.4274616 140.191853,40.6756636 142.551314,34.0859316 L142.644,33.819 L143.035563,33.7237799 C145.338023,33.1358916 147.18083,32.3329952 148.563168,31.3014058 L148.833496,31.0920346 C150.461577,29.7829243 155.411713,27.6794102 160.128778,26.8212223 C167.028016,25.5660259 173.311133,26.6589074 178.303954,30.7895863 Z" id="Path-19" fill="#000" fill-rule="nonzero"/><path d="M71.5639093,61.9749201 C72.0767451,61.9749201 72.4994164,62.3609603 72.5571815,62.8582989 L72.5639093,62.9749201 L72.5639093,69.8274918 C72.5639093,70.3797765 72.116194,70.8274918 71.5639093,70.8274918 C71.0510734,70.8274918 70.6284021,70.4414516 70.570637,69.9441129 L70.5639093,69.8274918 L70.5639093,62.9749201 C70.5639093,62.4226353 71.0116245,61.9749201 71.5639093,61.9749201 Z" id="Path-32" fill="#000" fill-rule="nonzero"/><path d="M91.2145478,78.8195154 C91.5091257,78.3523513 92.1266396,78.2124425 92.5938037,78.5070203 C93.0609678,78.8015982 93.2008766,79.4191121 92.9062988,79.8862762 C91.3300516,82.3860096 90.2863448,85.5721329 89.7860869,89.4512904 C89.715449,89.9990392 89.2141475,90.385814 88.6663987,90.315176 C88.1186499,90.2445381 87.7318752,89.7432366 87.8025131,89.1954878 C88.3378117,85.0446138 89.4715204,81.5837415 91.2145478,78.8195154 Z" id="Path-80" fill="#000" fill-rule="nonzero"/><path d="M99.6371,124.119436 C100.189385,124.119436 100.6371,124.567151 100.6371,125.119436 C100.6371,125.632271 100.25106,126.054943 99.7537211,126.112708 L99.6371,126.119436 L87.0311371,126.119436 C86.4788524,126.119436 86.0311371,125.67172 86.0311371,125.119436 C86.0311371,124.6066 86.4171773,124.183928 86.914516,124.126163 L87.0311371,124.119436 L99.6371,124.119436 Z" id="Path-81" fill="#000" fill-rule="nonzero"/><path d="M114.133,80.168 L114.113158,80.2942801 C113.901471,81.3769573 112.10933,87.4752915 108.474277,99.4919313 L99.2833611,129.674548 L97.3707037,129.089961 L105.512187,102.361856 C109.803343,88.210107 112.134502,80.3784927 112.134502,80.1435065 C112.134502,78.5865343 114.211352,77.5611057 116.646811,77.4985368 L116.883563,77.4955021 L193.839867,77.4955021 L193.995682,77.5077159 C195.996334,77.8233024 196.529889,79.555528 195.834799,82.0731022 L192.406173,93.2235849 L187.930448,107.662746 L186.020295,107.070026 L193.850767,81.735454 C194.303846,80.22878 194.224248,79.6643169 193.811023,79.515083 L193.744,79.495 L116.883563,79.4955021 C116.092565,79.4955021 115.368563,79.6255273 114.817921,79.8423212 L114.619764,79.9276018 C114.394787,80.0334116 114.230258,80.1453696 114.140307,80.2402171 C114.132042,80.2489315 114.129461,80.2491806 114.129338,80.2407503 L114.133,80.168 Z" id="Path-82" fill="#000" fill-rule="nonzero"/><path d="M195.658974,68.399035 C196.168627,68.4560839 196.545731,68.8867468 196.547813,69.3874246 L196.541526,69.5040703 L195.522602,78.606744 C195.461165,79.155601 194.966424,79.5507327 194.417567,79.4892954 C193.907914,79.4322466 193.53081,79.0015836 193.528728,78.5009058 L193.535016,78.3842601 L194.553939,69.2815864 C194.610988,68.7719336 195.041651,68.3948295 195.542328,68.3927478 L195.658974,68.399035 Z" id="Path-83" fill="#000" fill-rule="nonzero"/><path d="M64.5576976,44.1472379 L64.6035807,44.2500361 L67.2503155,51.1890004 C67.4471419,51.7050216 67.1883834,52.2828987 66.6723623,52.479725 C66.1931998,52.6624924 65.6607023,52.452434 65.4294857,52.0083377 L65.3816377,51.9017718 L63.107,45.94 L48.452,52.313 L48.4118233,52.4072249 C48.0404011,53.3623135 48.3189784,55.1695078 49.3815376,57.7793778 L49.5128164,58.0964118 C49.727069,58.6054445 49.4881024,59.1917831 48.9790697,59.4060356 C48.470037,59.6202881 47.8836985,59.3813216 47.669446,58.8722889 C46.1168442,55.1835341 45.8024907,52.5693264 46.935518,50.9525107 C47.0412812,50.8015879 47.1866936,50.6828271 47.3557003,50.6093406 L63.2704913,43.6893624 C63.7585722,43.4771378 64.3198059,43.6853492 64.5576976,44.1472379 Z" id="Path-84" fill="#000" fill-rule="nonzero"/><path d="M40.1464869,35.2554984 C39.6450943,35.449569 39.1281971,35.6514492 38.5890526,35.8636377 L29.9183651,39.3174647 L28.7468537,39.7700534 C26.4756809,40.6341063 24.9367484,41.143261 23.9726355,41.3352207 L23.83231,41.3616405 C19.7287473,42.087026 13.7289672,42.8375169 5.84086816,43.6111974 C3.45189823,43.6064218 3.45189823,45.6140934 5.09365591,48.206415 C7.17836367,51.4981511 12.6510761,52.5828247 19.6970187,51.6178592 L21.3897795,51.3799401 C22.9372855,51.1727002 24.8537419,50.9461997 27.4062067,50.6637578 L36.1534906,49.7100598 C40.2026824,49.2586826 42.1010763,49.0114563 43.4714114,48.753017 L43.988603,48.6499285 C45.8884365,48.2500122 46.6858709,49.0238943 46.7548222,51.5531514 L46.7949668,53.0257265 L64.9792787,45.2236975 L64.8718908,44.4660804 C64.2497941,40.077213 62.907658,36.0367409 60.8457484,32.3509637 C59.0605577,29.1598367 53.0075818,30.3699723 41.6023224,34.6974369 L40.1464869,35.2554984 Z M59.4173448,33.9084362 C60.9712322,36.8292045 62.0556296,39.9841617 62.6706909,43.3769534 L62.776,43.992 L48.611,50.069 L48.5747162,49.8840044 C48.0464094,47.3789882 46.3941226,46.1944479 43.8205913,46.6457109 L42.9780837,46.810316 C41.8425045,47.018303 40.2684726,47.22905 37.3418095,47.563249 L25.8796399,48.8218762 C23.9431072,49.0405946 22.406475,49.2258288 21.1166889,49.3986482 L19.8222593,49.5800212 C13.2845351,50.5415843 8.35268211,49.6143615 6.78330762,47.1363323 L6.6609059,46.9394457 C6.34816053,46.4265188 6.14442453,46.0114251 6.04335002,45.7181678 L6.006,45.599 L8.07999163,45.3935231 C15.0546658,44.6860454 20.3950616,44.000249 24.180452,43.3311067 L24.5128183,43.2656212 C25.671642,43.01585 27.3483361,42.4493267 29.7982881,41.5093645 L32.0091969,40.6412608 C34.4722675,39.6629555 38.1973867,38.1686766 38.7776419,37.9392439 L40.867764,37.12091 L41.8442583,36.7453678 C52.0118117,32.8616023 58.1284196,31.5901008 59.1003074,33.327404 L59.4173448,33.9084362 Z" id="Path-85" fill="#000" fill-rule="nonzero"/><path d="M2.53162183,32.8981459 L2.70985972,32.9049364 C4.50868169,33.0136223 15.2653513,34.4279127 35.541067,37.2137823 C36.0882112,37.2889595 36.470816,37.7934508 36.3956388,38.340595 C36.3204616,38.8877392 35.8159703,39.2703441 35.2688261,39.1951668 L14.7499594,36.4107291 C8.36067764,35.5609483 4.42990868,35.0655329 3.03730803,34.9338474 L2.849,34.916 L2.85358225,35.0094834 C2.87237448,35.2325128 2.94151408,35.5124128 3.06340243,35.8162011 L3.1428845,36.0010768 C3.75953265,37.3458069 5.0734074,38.537563 6.89910491,39.1364806 C9.98031905,40.1472687 13.6756128,41.1430205 17.9831409,42.1225544 C18.5216771,42.2450178 18.8589707,42.7808638 18.7365073,43.3193999 C18.614044,43.857936 18.078198,44.1952297 17.5396619,44.0727663 C13.175198,43.0802852 9.42115746,42.0687032 6.27569509,41.0368385 C3.91516131,40.2624687 2.1714856,38.6808596 1.32491543,36.8347365 C0.453494735,34.9344217 0.702939857,32.8981459 2.53162183,32.8981459 Z" id="Path-86" fill="#000" fill-rule="nonzero"/><path d="M22.4019125,27.1350179 C24.946656,25.1786634 33.6526073,26.8171068 49.4145628,31.8872472 C49.9403168,32.0563662 50.2294265,32.619672 50.0603075,33.145426 C49.8911885,33.6711799 49.3278827,33.9602896 48.8021287,33.7911706 L47.7319039,33.4489758 C33.783888,29.0165876 25.5021136,27.4734483 23.6867167,28.6737112 L23.5373467,28.7801024 C23.5120167,28.7983148 23.5099272,28.8055236 23.5246881,28.8300682 L23.5747838,28.910669 C23.8023326,29.3093779 24.4532939,29.8749284 25.5149471,30.5380898 C27.8238383,31.980338 31.8750706,33.7785151 37.6419796,35.9121836 C38.159949,36.1038243 38.4244906,36.679077 38.2328498,37.1970464 C38.041209,37.7150157 37.4659563,37.9795573 36.947987,37.7879165 C31.0629951,35.6105592 26.9076798,33.7661839 24.4553765,32.2343533 C21.5678244,30.4306447 20.5149001,28.5857202 22.4019125,27.1350179 Z" id="Path-87" fill="#000" fill-rule="nonzero"/><path d="M211.381001,27.6073865 L211.495454,27.611359 C212.82219,27.6934909 218.620034,29.0502523 229.398921,31.7799502 L231.386567,32.2844605 L231.599319,32.6234981 C232.878407,34.6618314 232.521559,37.185275 230.693304,40.0961433 L230.50558,40.3885179 L228.833231,39.2915912 C230.267209,37.1053806 230.657476,35.410353 230.133247,34.1297904 L230.082,34.017 L224.199936,32.5358507 C216.595577,30.6413878 212.231915,29.6453629 211.423683,29.6084515 L211.381001,29.6073865 C211.233075,29.6073865 210.769871,30.9168704 210.555574,33.6517799 L210.533592,33.9502657 L208.538339,33.812555 L208.588255,33.1660869 C208.903906,29.4966311 209.657966,27.6073865 211.381001,27.6073865 Z" id="Path-88" fill="#000" fill-rule="nonzero"/><path d="M217.085988,16.4504755 C219.080407,16.0449879 228.93702,18.2891912 241.919738,21.8746427 L244.969088,22.7252682 C259.7549,26.889592 269.93773,30.2323874 270.576999,31.5603753 C272.142985,34.8134849 268.065965,36.9211086 262.048116,36.0641317 L261.696248,36.0083652 C260.838644,35.8597631 259.71421,35.5797826 258.096385,35.1260758 L251.78892,33.3121488 C249.563356,32.6878621 247.647765,32.1920093 245.824631,31.7813713 C237.404326,29.8848034 232.014718,30.1265713 230.186511,33.006961 L230.091981,33.1637947 L228.355738,32.1710913 C230.68737,28.0930554 236.629085,27.7164469 245.802723,29.7277044 L246.264096,29.8302511 C247.753186,30.1656497 249.297322,30.5553403 251.010615,31.0218432 L253.22746,31.6418424 C254.955678,32.1367101 257.831973,32.9729056 258.287341,33.1019426 L258.951587,33.2882352 C260.539509,33.7284244 261.592056,33.9790084 262.330083,34.0841078 C267.05689,34.7572328 269.330461,33.5819057 268.774925,32.4278601 C268.571428,32.0051245 257.382604,28.3239944 245.273111,24.8895413 L242.022776,23.9789103 C229.340973,20.4670173 219.034758,18.0951857 217.484459,18.410379 C215.410653,18.8320067 213.971868,21.9230223 213.436555,27.8705273 L213.370557,28.6804717 L211.375906,28.5343014 L211.44326,27.7063341 C212.051673,20.9251486 213.841946,17.1100256 217.085988,16.4504755 Z" id="Path-89" fill="#000" fill-rule="nonzero"/><path d="M218.187385,16.4778585 C225.157329,14.2511242 230.470533,14.2511242 234.10663,16.5893232 C237.228399,18.5967818 241.044349,20.6747449 245.552897,22.8210683 L246.310735,23.1794214 L245.460424,24.9896621 C240.545293,22.6809139 236.400733,20.4423776 233.024883,18.2715313 C230.062192,16.3663674 225.478336,16.3210063 219.254372,18.2391392 L218.796032,18.382996 L218.187385,16.4778585 Z" id="Path-90" fill="#000" fill-rule="nonzero"/></g></g><g id="Head" transform="translate(250.000000, 368.000000) scale(1 1)" fill="#000"><g id="Head/Moving Hair" stroke="none" stroke-width="1" fill="none" fill-rule="evenodd"><g id="Group-3" transform="translate(-74.000000, -27.000000)" fill="#000"><path d="M89.1899,20.3058 C88.0419,20.6818 86.8929,21.0578 85.4229,21.5378 C87.6399,21.7598 87.6399,21.7598 89.1899,20.3058 M18.2389,29.8518 C16.1649,28.8858 14.0359,28.3098 11.7289,29.0268 C13.8989,29.3018 16.0689,29.5768 18.2389,29.8518 M81.0449,19.8178 C78.7759,15.6418 76.4419,11.5428 73.2459,8.0428 C69.9989,4.4888 66.1729,1.8168 61.3479,0.8748 C57.8649,0.1948 53.7699,1.9678 52.1339,4.8678 C52.8329,4.4078 53.4179,4.0038 54.0209,3.6278 C57.9609,1.1768 63.7479,0.6698 67.9179,5.4518 C68.9139,6.5948 69.8609,7.7828 70.7779,8.9888 C72.0829,10.7048 73.2739,12.5098 74.6309,14.1828 C76.4339,16.4048 78.3359,18.5498 81.0449,19.8178 M49.1269,79.9458 C48.3669,79.7278 47.9319,79.5528 47.4819,79.4818 C43.2849,78.8208 39.7469,76.8018 36.9009,73.7818 C34.6139,71.3538 32.6719,68.5898 30.6719,65.9058 C29.6719,64.5648 28.9499,63.0208 27.9889,61.6478 C25.1209,57.5508 19.5859,55.3658 14.5879,56.2178 C16.1009,57.6388 17.7939,58.9958 19.1919,60.6088 C20.6509,62.2898 21.8309,64.2138 23.1229,66.0388 C24.0929,67.4098 25.0119,68.8168 26.0159,70.1608 C28.3829,73.3318 31.2559,75.9688 34.5789,78.1218 C37.0359,79.7138 39.6949,80.7658 42.6139,81.0378 C44.7379,81.2368 46.8609,81.2238 49.1269,79.9458 M99.0849,66.8538 C94.8619,67.2248 91.3819,65.7428 88.1879,63.4708 C86.6749,62.3958 86.3199,61.5398 86.9909,61.0568 C88.1219,60.2428 88.6329,61.4998 89.4219,61.8848 C91.4929,62.8958 93.5309,64.0298 95.7019,64.7618 C98.0079,65.5398 99.3989,64.7158 100.5359,62.5098 C103.3009,57.1458 104.1249,51.2868 104.8999,45.4168 C105.0449,44.3098 105.0739,43.1868 105.1889,42.0738 C105.6479,37.6278 102.9229,33.6998 98.6059,32.8968 C95.1649,32.2568 91.7479,32.6078 88.4879,33.9448 C84.7949,35.4588 82.9729,38.3958 82.4219,42.2218 C82.1489,44.1188 81.9679,46.0308 81.7019,47.9288 C81.5959,48.6788 81.7209,49.7768 80.6649,49.7898 C80.1579,49.7958 79.5859,49.0448 79.1429,48.5478 C78.6409,47.9848 78.2489,47.3218 77.8169,46.7128 C75.9579,47.9118 75.5079,49.2468 76.5039,50.7888 C76.9959,51.5478 77.7969,52.3608 78.6179,52.5988 C80.4519,53.1308 80.7449,54.3228 80.5439,55.8948 C79.9089,60.8828 79.3089,65.8768 78.5919,70.8538 C78.1709,73.7748 77.5599,76.6688 77.0169,79.5728 C76.9149,80.1178 76.8109,80.6908 76.5529,81.1668 C76.4019,81.4458 75.9169,81.7378 75.6299,81.6938 C75.3389,81.6498 74.9069,81.2138 74.8909,80.9298 C74.8509,80.2308 74.9859,79.5148 75.1039,78.8148 C75.4199,76.9248 75.7439,75.0358 76.1039,73.1558 C76.3279,71.9878 75.8769,71.2038 74.9729,70.4828 C71.7539,67.9108 68.5089,67.9738 65.5099,70.8028 C64.4649,71.7878 63.5059,72.8678 62.5439,73.9358 C59.7869,76.9928 56.5999,79.2588 52.3529,79.6848 C51.8149,79.7388 51.2649,79.9518 50.7779,80.2018 C45.7989,82.7548 40.8729,82.2768 36.0569,79.8308 C31.4789,77.5058 27.8189,74.0758 24.8499,69.9118 C23.5039,68.0268 22.3789,65.9728 20.9339,64.1708 C19.1949,62.0028 17.3689,59.8548 15.2939,58.0218 C14.0309,56.9048 12.3049,56.0348 10.6539,55.6818 C5.0199,54.4788 2.0549,50.8428 0.6789,45.5538 C-0.1821,42.2428 -0.3031,38.9238 0.7769,35.6388 C1.7249,32.7568 3.6369,30.8808 6.4179,29.5038 C10.9479,27.2598 15.3459,27.5778 19.8659,29.2368 C23.2629,30.4838 26.7189,31.3358 30.3979,31.1378 C33.4859,30.9718 35.9999,29.6948 37.8179,27.3128 C39.2609,25.4218 40.4719,23.3268 41.5739,21.2108 C42.9369,18.5918 43.9239,15.7708 45.3599,13.1958 C47.0249,10.2068 48.7579,7.1978 50.8939,4.5438 C54.6399,-0.1102 59.5729,-1.1252 65.1059,1.2048 C69.4969,3.0548 72.9929,6.0668 75.7589,9.8828 C77.6799,12.5318 79.3979,15.3288 81.1659,18.0868 C83.0179,20.9768 83.7729,21.2408 87.0999,20.1858 C89.9859,19.2708 92.9279,18.5238 95.7869,17.5308 C102.7239,15.1198 110.8089,22.1538 110.2539,29.2468 C110.0339,32.0708 109.3619,34.7438 108.1609,37.3138 C107.7359,38.2218 107.4079,39.2558 107.3639,40.2468 C107.1629,44.8928 106.5229,49.4668 105.5859,54.0178 C104.8389,57.6498 103.7409,61.1518 101.8489,64.3308 C101.1439,65.5168 101.1569,66.4908 101.5099,67.7008 C102.7009,71.7618 103.8299,75.8418 104.9539,79.9218 C105.1719,80.7158 105.7939,81.8528 104.5639,82.1538 C103.4039,82.4378 103.3259,81.1358 103.0949,80.3598 C101.9399,76.4538 100.8459,72.5308 99.7179,68.6168 C99.5659,68.0848 99.3449,67.5728 99.0849,66.8538" id="Fill-1"/></g></g></g><g id="Face" transform="translate(264.000000, 380.000000) scale(1 1)" fill="#000"><g id="Face/Happy" stroke="none" stroke-width="1" fill="none" fill-rule="evenodd"><g id="Happy" fill="#000"><polygon id="Fill-1" points="9.6244 5.4505 11.1524 11.4955 8.9234 11.7185"/><g id="Group-22" transform="translate(0.000000, 0.652400)"><path d="M9.6283,4.8567 L8.9363,11.0537 L11.1393,10.8337 L9.6283,4.8567 Z M8.9233,11.0767 C8.9213,11.0767 8.9183,11.0757 8.9163,11.0737 C8.9143,11.0707 8.9133,11.0677 8.9133,11.0647 L9.6133,4.7967 C9.6143,4.7917 9.6183,4.7877 9.6233,4.7877 C9.6283,4.7877 9.6333,4.7907 9.6343,4.7947 L11.1623,10.8397 C11.1633,10.8427 11.1623,10.8467 11.1613,10.8487 C11.1593,10.8517 11.1563,10.8527 11.1533,10.8537 L8.9253,11.0767 L8.9233,11.0767 Z" id="Fill-2"/><path d="M7.8626,0.3586 C7.8626,0.3586 7.9546,2.2096 7.5446,2.5976 C5.8246,2.4076 1.9526,3.0466 0.0106,3.9036 C0.7746,2.1306 7.8626,0.3586 7.8626,0.3586" id="Fill-4"/><g id="Group-8"><path d="M7.8524,0.3713 C7.6894,0.4133 5.9904,0.8483 4.2264,1.4753 C1.8134,2.3353 0.3654,3.1663 0.0314,3.8823 C1.9254,3.0563 5.7694,2.3923 7.5404,2.5873 C7.9214,2.2163 7.8594,0.5363 7.8524,0.3713 M0.0104,3.9143 C0.0074,3.9143 0.0054,3.9123 0.0034,3.9103 C-0.0006,3.9073 -0.0006,3.9033 0.0004,3.8983 C0.3184,3.1613 1.7384,2.3393 4.2194,1.4563 C6.0664,0.7993 7.8424,0.3523 7.8594,0.3483 C7.8634,0.3473 7.8664,0.3483 7.8684,0.3503 C7.8714,0.3513 7.8734,0.3543 7.8734,0.3573 C7.8764,0.4333 7.9614,2.2183 7.5514,2.6053 C7.5494,2.6073 7.5454,2.6093 7.5424,2.6083 C5.7684,2.4113 1.8994,3.0823 0.0154,3.9133 C0.0134,3.9133 0.0124,3.9143 0.0104,3.9143" id="Fill-6"/></g><path d="M4.8997,8.6438 C4.3457,8.6778 3.7937,8.5748 3.2787,8.4048 C3.4687,8.4608 3.6717,8.4918 3.8827,8.4918 C4.9357,8.4918 5.7927,7.7398 5.7927,6.8168 C5.7927,6.4448 5.5037,5.9998 5.2307,5.6918 C6.5807,5.8158 7.7657,6.5188 8.2027,6.8078 C7.8117,7.2718 6.5937,8.5398 4.8997,8.6438 M2.0237,6.3568 C1.9927,6.5158 1.9737,6.6898 1.9737,6.8168 C1.9737,7.4868 2.4247,8.0658 3.0737,8.3328 C2.0807,7.9648 1.2587,7.3728 0.9077,7.0968 C1.1117,6.9228 1.4927,6.6308 2.0237,6.3568 M8.6377,6.5928 C8.5667,6.5398 6.8727,5.2738 4.8837,5.2478 C2.1497,5.2168 0.5007,6.8868 0.4307,6.9578 C0.3907,6.9988 0.3697,7.0558 0.3717,7.1138 C0.3737,7.1708 0.3997,7.2258 0.4427,7.2638 C0.5297,7.3408 2.5167,9.0748 4.6817,9.0748 C4.7627,9.0748 4.8447,9.0718 4.9257,9.0668 C7.1967,8.9258 8.6227,6.9688 8.6827,6.8858 C8.7497,6.7918 8.7297,6.6628 8.6377,6.5928" id="Fill-9"/><path d="M14.221,8.217 C13.735,8.251 13.248,8.132 12.802,7.946 C12.879,7.961 12.957,7.971 13.035,7.971 C13.884,7.971 14.573,7.281 14.573,6.433 C14.573,6.062 14.443,5.714 14.209,5.439 C14.303,5.433 14.399,5.43 14.495,5.43 L14.496,5.43 C15.566,5.43 16.546,6.185 16.889,6.482 C16.584,6.905 15.595,8.118 14.221,8.217 M11.018,6.776 C11.129,6.681 11.296,6.548 11.511,6.402 C11.553,6.758 11.706,7.116 11.948,7.407 C12.013,7.487 12.083,7.556 12.156,7.619 C11.641,7.315 11.231,6.969 11.018,6.776 M17.318,6.298 C17.264,6.245 15.997,5.006 14.496,5.006 L14.495,5.006 C12.172,5.006 10.62,6.558 10.555,6.624 C10.474,6.706 10.474,6.838 10.554,6.921 C10.573,6.94 11.013,7.389 11.684,7.826 C12.519,8.371 13.313,8.647 14.046,8.647 C14.115,8.647 14.183,8.645 14.251,8.64 C16.129,8.505 17.3,6.639 17.349,6.56 C17.401,6.476 17.388,6.367 17.318,6.298" id="Fill-11"/><path d="M10.8109,0.3586 C10.8109,0.3586 10.7179,2.2096 11.1289,2.5976 C12.8479,2.4076 15.6169,2.8636 17.5589,3.7196 C16.7949,1.9476 10.8109,0.3586 10.8109,0.3586" id="Fill-13"/><g id="Group-17" transform="translate(10.000000, 0.000000)"><path d="M1.9872,2.5442 C3.7012,2.5442 5.9272,2.9942 7.5382,3.6992 C7.2082,2.9832 5.9502,2.1842 3.8942,1.3842 C2.3992,0.8032 0.9702,0.4122 0.8202,0.3722 C0.8142,0.5382 0.7522,2.2162 1.1332,2.5872 C1.3972,2.5582 1.6842,2.5442 1.9872,2.5442 M7.5582,3.7312 C7.5572,3.7312 7.5552,3.7312 7.5542,3.7302 C5.6592,2.8952 2.8982,2.4122 1.1302,2.6082 C1.1272,2.6092 1.1242,2.6072 1.1222,2.6062 C0.9492,2.4422 0.8432,2.0152 0.8052,1.3332 C0.7772,0.8272 0.8002,0.3622 0.8002,0.3572 C0.8002,0.3552 0.8022,0.3522 0.8042,0.3502 C0.8072,0.3482 0.8102,0.3472 0.8142,0.3482 C0.8282,0.3522 2.3282,0.7522 3.9022,1.3642 C5.3562,1.9302 7.1722,2.7972 7.5682,3.7162 C7.5702,3.7202 7.56924052,3.7252 7.5662,3.7282 C7.5642,3.7302 7.5612,3.7312 7.5582,3.7312" id="Fill-15"/></g><path d="M5.974,13.3127 C7.031,14.3127 7.89,14.8687 9.322,14.9637 C10.754,15.0597 11.757,14.5357 11.757,14.5357 C11.757,14.5357 10.611,16.4807 9.226,16.8417 C6.362,17.5907 6.497,15.3437 5.974,13.3127" id="Fill-18"/><path d="M5.993,13.3459 C6.075,13.6659 6.14,13.9919 6.203,14.3069 C6.411,15.3389 6.607,16.3149 7.294,16.7429 C7.744,17.0249 8.375,17.0539 9.223,16.8319 C10.493,16.4999 11.575,14.8109 11.729,14.5609 C11.544,14.6489 10.597,15.0589 9.321,14.9749 C7.881,14.8779 7.035,14.3279 5.993,13.3459 M8.224,16.9999 C7.849,16.9999 7.537,16.9199 7.283,16.7609 C6.588,16.3269 6.391,15.3479 6.182,14.3109 C6.117,13.9849 6.049,13.6469 5.964,13.3159 C5.962,13.3109 5.965,13.3069 5.969,13.3039 C5.972,13.3019 5.978,13.3019 5.981,13.3059 C7.033,14.2999 7.876,14.8569 9.323,14.9529 C10.736,15.0479 11.742,14.5319 11.752,14.5269 C11.757,14.5239 11.762,14.5249 11.764,14.5289 C11.768,14.5319 11.768,14.5369 11.766,14.5409 C11.755,14.5609 10.602,16.4929 9.229,16.8529 C8.853,16.9499 8.519,16.9999 8.224,16.9999" id="Fill-20"/></g></g></g></g><g id="Glasses" transform="translate(261.000000, 385.000000) scale(1 1)"><g id="Glasses/None" stroke="none" stroke-width="1" fill="none" fill-rule="evenodd" fill-opacity="0"/></g></g></svg>