<svg viewBox="193.55710659898477 360.6250000000001 151.10406091370555 165.8875" xmlns="http://www.w3.org/2000/svg" overflow="visible" xmlns:xlink="http://www.w3.org/1999/xlink" width="450.10406091370555px" height="375.8875px"><g id="Master/Character/Torso" stroke="none" stroke-width="1" fill="none" fill-rule="evenodd"><g id="Torso" transform="translate(139.000000, 391.000000) scale(1 1)"><g id="Torso/Thinking" stroke="none" stroke-width="1" fill="none" fill-rule="evenodd"><g id="Group-24" transform="translate(55.000000, 26.000000)"><g id="Group-3" transform="translate(0.000000, 0.402000)"><g id="Fill" transform="translate(2.217000, 9.252374)" fill="#FFF"><path d="M89.3144557,7.78848354 C88.2180428,9.26996687 85.3523739,11.5424283 84.4409685,12.7559838 C84.255961,13.002241 82.9790713,16.3231688 82.7210345,16.4453124 C80.8592748,17.3249431 80.6531832,18.2839655 80.3396442,18.4987018 C78.9219818,19.4695809 94.5122587,34.6795826 95.3944524,35.6518061 C94.1364014,35.7808448 90.0418273,36.2400556 89.3144557,36.2479359 C76.3220601,36.3848549 63.3286907,36.5099535 50.3353214,36.6311121 C46.9165774,36.663618 31.9831579,92.2893769 30.407673,92.3602989 C27.3803659,92.4952479 22.0466998,92.601434 19.0193928,92.7629787 C14.5947922,92.9993856 10.1672704,93.1865411 5.73780122,93.32149 C4.66281024,93.353996 3.55958126,93.1954064 2.50601219,92.9589994 C0.371609794,92.4802754 -0.264231797,91.60951 0.0940985331,89.4365364 C0.505009944,86.9562339 1.11358727,84.5094223 1.61310754,82.0429102 C4.58685979,67.3649959 9.12343861,55.093507 13.7379153,40.8982569 C16.0125339,33.8966721 19.1362396,27.1590751 22.1557569,20.4313283 C23.2249055,18.0485436 25.09835,16.0262795 26.6611766,13.8838418 C27.0681931,13.3273005 27.6426901,12.8535017 28.2259506,12.4801758 C30.3749588,11.1090157 32.7148169,10.1525527 34.2610902,7.78848354 C34.9758034,6.69707162 36.9115662,6.24395837 38.3857839,5.87260251 C42.8318064,4.7506547 47.3323574,2.86432453 51.7910384,1.78670302 C52.84266,1.53256558 53.4940812,1.68721511 54.2175579,2.53236982 C58.0472133,7.00834073 63.0433897,7.10191846 68.7815436,7.52449582 C69.7114497,7.59246281 70.6501194,7.52843594 71.581973,7.56882212 C75.4145496,7.73529199 78.5314392,6.17500636 81.1994422,3.52035372 C81.8469685,2.87614488 83.5480638,0.898346273 84.4409685,-4.26325641e-14 C86.9194199,3.92426194 88.5439157,6.52042312 89.3144557,7.78848354 Z" id="Fill-6"/><path d="M127.783,42.8456259 C129.87,45.4716259 141.749207,58.1555603 139.6866,79.3029259 C139.571246,80.4856233 139.5006,81.6869259 139.4516,82.8819259 C139.2906,86.8459259 137.1916,89.7989259 133.4146,90.8399259 C130.8916,91.5359259 128.2806,92.1429259 125.6806,92.2889259 C121.3836,92.5299259 117.0646,92.3829259 112.7546,92.3569259 C112.0816,92.3529259 108.592608,92.1289259 107.946608,92.0109259 C120.112869,60.8340592 126.725,44.4456259 127.783,42.8456259 Z" id="Fill-8"/><path d="M93.6278,0.13642591 C94.6668,0.0874259096 95.4428,-0.0705740904 96.1818,0.0364259096 C100.0468,0.59442591 101.9258,2.10042591 105.7528,2.86142591 C108.5418,3.41642591 110.9948,4.74042591 112.7518,7.13442591 C113.4788,8.12442591 114.4198,8.83642591 115.7788,8.76442591 C117.0538,8.69642591 117.8758,9.48742591 118.4798,10.4664259 C119.3988,11.9594259 120.3708,13.4454259 121.0778,15.0424259 C123.3368,20.1474259 127.3058,24.3884259 129.7178,29.4184259 C133.1768,36.6364259 133.60568,47.5719827 136.07768,55.0459827 C134.24368,51.9009827 129.635,45.8826259 127.783,42.7476259 C127.218,41.7916259 130.266207,36.3112524 127.783,36.3112524 C126.415983,36.3112524 101.286057,36.3112524 97.0519681,36.3112524 C89.5892374,36.3112524 109.364642,26.5713502 107.382026,24.1414115 C101.357195,16.7572416 91.9650571,0.94980594 91.6896774,0.34562591" id="Fill-10"/></g><path d="M98.1905399,44.0232324 C99.8135443,44.0428331 102.63108,45.0343958 104.042057,43.9377335 C106.265013,42.2060067 108.309218,40.2292704 110.413324,38.3377974 C111.068421,37.7478146 111.228154,37.0706085 110.618696,36.2983387 C109.974058,35.4819672 109.29424,35.3594625 108.483214,36.0356886 C105.324678,38.6670901 98.1125749,43.8556459 98.1905399,44.0232324 Z M124.499146,44.598 C123.369831,42.4760319 118.603769,35.4747976 114.517892,37.4536564 C113.455254,37.9683099 107.017164,42.8531565 106,44.598 L124.499146,44.598 Z M106.883234,30.5396591 C103.253984,25.3002861 99.6382,20.0519296 95.9752833,14.8385089 C93.7148174,11.6204219 91.4033708,8.43926707 89.064991,5.28206821 C88.3676132,4.34079773 86.8997533,2.61339828 86.0186525,3.598 C85.1375518,4.58260172 85.8997533,6.23615257 86.4287985,7.16943773 C88.6479026,11.0782555 90.0009438,12.8908638 92.2594858,16.7757256 C92.6485965,17.4447518 89.7325499,20.3252869 89.064991,21.7356954 C88.7427544,22.4164445 88.2157515,23.0904966 87.6366875,23.3520161 C86.1460404,24.0259656 85.9298414,25.3433021 86.2628276,26.8303543 C86.2790097,26.9026207 81.8343858,25.9788767 85,30.3089205 C88.1656142,34.6389643 91.8593116,38.1305488 95.4443143,41.7219498 C96.6149471,42.8947948 96.8650412,42.865848 98.1905399,41.7798435 C101.26285,39.2614708 104.301493,36.6991788 107.344946,34.1428759 C107.571954,33.9532243 107.729706,32.6727397 108,32.3333633 C107.617164,31.7145004 107.275689,31.1066174 106.883234,30.5396591 Z M95.799729,11.4554762 C98.049764,14.7513643 100.282136,18.0590059 102.606747,21.3029825 C104.929396,24.5450002 107.347227,27.7194351 109.729732,30.9193359 C110.80029,32.356206 111.893416,33.7754458 112.962011,35.2123159 C113.490912,35.9243844 114.141489,36.1026464 115.017756,35.9439736 C117.737816,35.4483661 119.935844,36.4611293 121.723704,38.4582514 C122.974814,39.8569225 124.286762,41.2203329 125.374982,42.7404572 C126.224756,43.9285441 127.247231,44.1890808 128.588617,44.197896 C132.496005,44.2223825 133.101444,45.1244666 131.685482,48.6848093 C131.327321,49.5859139 131.039811,50.4233535 131.595206,51.3606982 C133.412504,54.4303307 135.200364,57.5175935 137,60.598 C134.5753,53.2784839 133.807953,45.4819701 130.413766,38.4122167 C128.045979,33.4855252 126.114854,28.3521672 123.898182,23.3520161 C123.20443,21.787816 122.250642,20.3323362 121.347881,18.8700001 C120.75618,17.9111072 119.948601,17.1363532 118.698472,17.2029565 C117.364936,17.2734778 116.440587,16.5761012 115.72819,15.6064342 C114.004112,13.2625828 111.597075,11.9647962 108.860334,11.4211951 C105.105042,10.6758249 101.298724,10.1811968 97.5051633,9.63367778 C96.7809915,9.52887539 96.0195318,9.68363032 95,9.73162393 C95.3591421,10.5181315 95.5112378,11.0333283 95.799729,11.4554762 Z M113.988719,100.531843 C118.288462,100.556294 122.599182,100.701041 126.885953,100.464359 C129.480368,100.321568 132.085759,99.7279079 134.604337,99.0472037 C138.372226,98.0290814 140.467714,95.1419566 140.628368,91.2640941 C140.677263,90.0963343 140.805986,88.9315085 140.861866,87.7637487 C141.003561,84.8639096 141.765615,78.5817694 139.413417,70.255126 C137.061219,61.9284825 132.532797,57.1672673 130.45028,54.598 C128.866689,56.945256 112.161652,98.2061036 112,100.193447 C112.64561,100.307876 113.317164,100.527931 113.988719,100.531843 Z M84.0586079,12.4274772 C81.361391,15.0925965 78.2125058,16.6590339 74.339377,16.4919077 C73.3976635,16.4513623 72.4490618,16.5156416 71.5093164,16.4474066 C65.7104475,16.0231632 60.6614069,13.9513914 56.7912301,9.45777291 C56.0591143,8.60928597 55.4017846,8.45501561 54.3380518,8.70916613 C49.8331779,9.79103643 45.2850068,10.6958914 40.7919412,11.8222628 C39.3021249,12.1950828 37.34588,12.6499825 36.6236045,13.7456976 C35.0609702,16.1190877 32.6963542,17.0793217 30.5246074,18.455888 C29.9351755,18.8306858 29.3545998,19.3063527 28.9432766,19.8650883 C27.3629299,22.0159731 25.4706467,24.0462105 24.3901854,26.4383899 C21.3387189,33.1926624 18.1819615,39.9568241 15.8822912,46.9860143 C11.2199731,61.2382216 6.63539303,75.5349299 3.63017572,90.2707155 C3.12537006,92.7469524 2.51035342,95.2034111 2.09509418,97.6934929 C1.73297238,99.8750339 2.37554177,100.749233 4.53252814,101.229844 C5.59724494,101.467183 6.71214711,101.626398 7.79851251,101.593764 C12.2738656,101.458283 16.7492187,101.270389 21.2206357,101.03305 C24.2799745,100.870869 27.3284889,100.530683 30.3878277,100.395202 C31.9799828,100.324 32.7701562,99.6198945 33.2021439,98.1118029 C35.0983632,91.507845 37.0742886,84.92861 39.0010128,78.3335524 C39.1663293,77.7678944 39.8354046,75.6614369 39.9111746,75.1343465 C39.5766056,74.970187 20.7296064,74.8268686 20.7827438,74.4332814 C20.8289931,74.0812285 21.4823868,73.5907279 21.9065022,73.5472158 C23.7003828,73.364267 25.5070557,73.2900985 27.3117605,73.2436196 C29.1971555,73.1951629 31.0855026,73.2337305 32.9728657,73.2159301 C35.016689,73.1961518 35.0629382,73.1496729 35.4112837,71.1916261 C35.5638078,70.3362168 35.6917312,69.4758629 35.8737762,68.6263871 C36.0312204,67.8837137 36.3707096,67.2280647 37.271094,67.3506899 C38.1537659,67.4713372 37.3732038,68.1942323 37.3377788,68.943828 C37.2885775,69.9663635 37.1636061,70.9869213 37.0238743,72.0015455 C36.898903,72.9064005 40.4308035,73.5294154 40.67189,72.7452077 C40.9267529,71.9145212 41.189488,71.0868014 41.4374627,70.255126 C43.6308581,62.9154172 45.7917805,55.5668083 48.0235529,48.2389665 C49.0341483,44.9172093 49.4129985,44.7125044 52.867916,44.6798703 C65.9987673,44.558234 79.1296186,44.4326422 92.2594858,44.2951833 C92.9945537,44.287272 93.7286376,44.1527799 95,44.0232324 C94.1084719,43.0471757 93.6154745,42.4745954 93.0870522,41.9366269 C90.4360845,39.2398625 87.7231231,36.6014439 85.1410372,33.8394112 C84.022199,32.642827 83.0371883,31.2741721 82.2214302,29.8491492 C81.3682792,28.3578691 81.7264648,27.4708145 83.1897124,26.4759685 C83.506569,26.2603856 83.8460582,26.0784257 84.2475411,25.8371311 C84.1009211,23.8098604 84.8172925,22.2681458 86.6987514,21.3850469 C86.9595184,21.2624217 87.1474675,20.9588256 87.3344326,20.7115974 C88.2554815,19.4922683 89.1647221,18.26305 90.2727361,16.7757256 C89.1046965,14.8661355 87.7674043,12.6826167 86.2628276,10.2241801 C85.3604752,11.1260683 84.7129857,11.7807284 84.0586079,12.4274772 Z M38.8758741,100.556156 C56.1457917,100.578679 73.4166875,100.620789 90.6875833,100.582597 C96.1527223,100.571824 101.617861,100.306435 107.083979,100.232009 C108.83298,100.207527 109.701611,99.4074425 110.316891,97.8102123 C113.014735,90.8062941 115.814311,83.8415478 118.59041,76.8670085 C122.17547,67.8584733 125.778139,58.8567933 129.359287,49.8462996 C129.600899,49.2381573 129.723173,47.5830089 130,46.600776 C128.644231,46.600776 127.643544,46.593921 126.644814,46.6017553 C109.848339,46.7290637 93.0518648,46.8681236 76.2553904,46.9827011 C68.753663,47.0336244 60.2509574,47.0257901 52.7492299,47.0678998 C50.590368,47.0806306 50.4074467,48.2265456 49.7510823,50.2605414 C49.2218823,51.8969434 48.7572428,53.5539106 48.2642358,55.2020642 C44.0345488,69.3626705 39.8019272,83.5232769 35.581044,97.6858418 C35.3648643,98.4154167 35.2533508,99.1773082 35,100.365193 C36.209041,100.448433 38.0424575,100.555176 38.8758741,100.556156 Z M142.905016,91.4502686 C142.865027,96.8640232 139.766333,99.9839491 134.539421,101.374522 C132.437537,101.934464 130.272255,102.506133 128.119653,102.576493 C122.753266,102.754345 117.370297,102.825682 112.011713,102.574538 C109.544072,102.459227 107.118371,102.05857 104.598061,102.222742 C100.402096,102.495384 96.1817476,102.443592 91.9721277,102.447501 C72.7137998,102.463136 53.4535212,102.35662 34.1951932,102.50027 C27.8163903,102.547176 21.4473408,103.297675 15.0665871,103.554682 C11.7328335,103.689537 8.38444966,103.477482 5.0438686,103.355331 C4.36404816,103.329923 3.66569603,103.074871 3.02586503,102.806137 C0.494826233,101.743908 -0.381039985,99.9077266 0.147600872,97.2076898 C2.58305516,84.7814616 5.9606996,72.6093086 9.54609406,60.4694036 C12.5823653,50.1881559 15.9834182,40.0661937 20.3627492,30.2950506 C21.7594535,27.1806759 23.5804359,24.2441537 25.3750839,21.3301075 C26.1378092,20.0910026 27.2009431,18.9486418 28.3547847,18.0584016 C30.8702178,16.1176585 33.2851897,14.0469462 35.79282,12.1179297 C37.3153447,10.9462525 39.4494152,10.4615553 41.3845138,9.96219996 C45.7540914,8.83352006 50.1909683,7.96477857 54.5585951,6.8292582 C56.247905,6.39049 57.491479,6.78626087 58.5058452,8.03806947 C63.0509862,13.640426 69.1810744,14.9557534 75.9373386,14.5130764 C79.8153387,14.2590012 82.3141909,11.8491964 84.2580677,8.76218359 C84.5243388,8.33709635 84.3936416,7.57877982 84.2765994,7.01004242 C84.0727508,6.02110385 83.6445712,5.07516261 83.4787613,4.08231519 C83.2836909,2.91161518 83.2680853,1.68130524 84.463867,0.940578519 C85.7006135,0.172489866 86.7725255,0.826244712 87.6366875,1.62267251 C89.0090079,2.88718488 90.3725502,4.19860342 91.5137122,5.6673531 C92.5193003,6.96215903 93.6107193,8.54066855 95.2610151,8.51916989 C100.276276,8.45076505 105.199853,9.26282824 110.056132,10.4501409 C112.905135,11.1459158 115.443977,12.4407218 117.473685,14.6658335 C118.016956,15.2609557 118.815769,15.8160121 119.583371,15.9752977 C121.951526,16.4648809 123.478928,17.9531748 124.499146,19.9564595 C126.590301,24.0558639 128.780942,28.1288836 130.501463,32.3875737 C131.012088,33.6520264 131.552263,34.9055748 132.093048,36.1594068 C133.587197,39.6236552 135.085999,43.0900678 135.979041,46.7946106 C137.643967,53.700568 139.576139,60.5430066 141.173766,67.462645 C142.58315,73.5643569 143.261995,79.7755165 142.906967,86.7352206 C142.906967,87.8580372 142.917696,89.6541529 142.905016,91.4502686 Z" id="Fill-1" fill="#000"/></g></g></g></g><g id="Head" transform="translate(250.000000, 368.000000) scale(1 1)" fill="#000"><g id="Head/Big Pompadour" stroke="none" stroke-width="1" fill="none" fill-rule="evenodd"><g id="Group-3" transform="translate(0.000000, -7.000000)" fill="#000"><path d="M45.6930696,15.0901803 C44.4270696,17.7891803 41.9060696,19.8081803 38.4000696,20.9281803 C37.1930696,21.3131803 35.3410696,21.2531803 33.1760696,20.9221803 C33.1780696,20.7101803 33.1760696,20.4981803 33.1750696,20.2861803 C34.9130696,20.5801803 36.2970696,20.6911803 37.0970696,20.5131803 C43.6700696,19.0531803 46.2170696,14.8141803 45.5690696,7.99718033 C45.4310696,6.54618033 44.9960696,5.24518033 44.2690696,4.14818033 C44.8100696,4.48018033 45.2000696,4.92618033 45.4350696,5.50718033 C46.8750696,9.06518033 46.9640696,12.3781803 45.6930696,15.0901803 M16.0060696,15.9571803 C20.8010696,17.2561803 26.8080696,18.9951803 31.3120696,19.9331803 C31.3130696,20.1521803 31.3170696,20.3701803 31.3150696,20.5891803 C26.1080696,19.5361803 19.7670696,17.3471803 16.0060696,15.9571803 M45.8990696,5.31918033 C45.5170696,4.37618033 44.7800696,3.70418033 43.7090696,3.32418033 C43.6770696,3.31418033 43.6410696,3.30818033 43.6100696,3.29718033 C42.8700696,2.48318033 41.9280696,1.81918033 40.7610696,1.35418033 C38.1550696,0.31618033 35.4020696,-0.40581967 32.5340696,0.25218033 C27.6600696,1.37118033 22.8340696,3.99718033 19.6670696,6.67718033 C18.1500696,7.96018033 16.8340696,9.48618033 15.4660696,10.9401803 C13.7290696,12.7851803 12.1870696,14.8021803 9.48006956,15.4401803 C7.90006956,15.8131803 7.08406956,17.2371803 6.44706956,18.6461803 C5.27706956,21.2361803 5.02806956,23.8931803 5.39006956,26.5771803 C5.23906956,26.5541803 5.12106956,26.5331803 5.01006956,26.4961803 C2.10506956,25.5351803 -0.107930436,27.1701803 0.00406956433,30.2291803 C0.0880695643,32.5041803 1.17906956,34.2611803 3.19506956,35.2091803 C4.37506956,35.7641803 4.64506956,36.4101803 4.54306956,37.6051803 C3.89306956,45.1721803 2.66406956,52.6471803 1.11606956,60.0771803 C0.938069564,60.9321803 1.09206956,61.8561803 1.09206956,62.8121803 C2.66606956,62.7581803 2.60506956,61.7821803 2.78306956,60.9571803 C4.44906956,53.2241803 5.72406956,45.4301803 6.42506956,37.5471803 C6.64406956,35.0821803 6.61806956,35.0081803 4.24806956,33.7811803 C2.42506956,32.8371803 1.36806956,30.8081803 2.01706956,29.2591803 C2.23906956,28.7311803 2.78106956,28.0781803 3.26506956,27.9941803 C3.69506956,27.9191803 4.29706956,28.5001803 4.73206956,28.8911803 C4.92506956,29.0661803 5.60906956,29.7741803 6.17806956,30.2941803 C6.35106956,30.7601803 6.64406956,31.1361803 7.27306956,31.2101803 C8.59506956,31.3671803 9.01306956,30.1371803 9.31606956,29.2071803 C10.3020696,26.1771803 11.2020696,23.1161803 12.0210696,20.0371803 C12.4080696,18.5871803 12.5580696,17.0681803 12.8530696,15.2921803 C14.6480696,16.0061803 24.0240696,19.6601803 31.3050696,21.1051803 C31.2850696,22.1931803 31.2330696,23.2781803 31.1340696,24.3581803 C30.5330696,30.8891803 29.6760696,37.3811803 26.7290696,43.3761803 C25.3720696,46.1371803 23.9490696,46.7521803 20.9250696,45.8191803 C18.7020696,45.1341803 16.5820696,44.2271803 14.7850696,42.6811803 C14.2700696,42.2381803 13.6250696,41.4941803 12.9780696,42.3501803 C12.3880696,43.1301803 13.1430696,43.6961803 13.7020696,44.1091803 C14.6620696,44.8161803 15.6430696,45.5241803 16.7030696,46.0601803 C19.3550696,47.4031803 22.1190696,48.3791803 25.1430696,47.8201803 C25.4210696,48.6281803 25.6520696,49.2211803 25.8280696,49.8301803 C26.8840696,53.5131803 27.9070696,57.2061803 28.9940696,60.8801803 C29.2630696,61.7921803 29.2010696,62.9941803 31.0970696,63.4691803 C30.9520696,62.3751803 30.9380696,61.6051803 30.7400696,60.8841803 C29.6410696,56.8821803 28.4750696,52.8991803 27.3880696,48.8941803 C27.1510696,48.0211803 26.6420696,47.1691803 27.2790696,46.1601803 C29.7940696,42.1741803 30.9920696,37.7111803 31.8480696,33.1321803 C32.5740696,29.2541803 33.0960696,25.3571803 33.1740696,21.4311803 C34.2960696,21.5971803 35.3390696,21.6931803 36.2580696,21.6931803 C37.1500696,21.6931803 37.9290696,21.6041803 38.5520696,21.4041803 C42.1930696,20.2401803 44.8190696,18.1311803 46.1460696,15.3021803 C47.4780696,12.4611803 47.3920696,9.00918033 45.8990696,5.31918033" id="Fill-3"/></g></g></g><g id="Face" transform="translate(264.000000, 380.000000) scale(1 1)" fill="#000"><g id="Face/Happy" stroke="none" stroke-width="1" fill="none" fill-rule="evenodd"><g id="Happy" fill="#000"><polygon id="Fill-1" points="9.6244 5.4505 11.1524 11.4955 8.9234 11.7185"/><g id="Group-22" transform="translate(0.000000, 0.652400)"><path d="M9.6283,4.8567 L8.9363,11.0537 L11.1393,10.8337 L9.6283,4.8567 Z M8.9233,11.0767 C8.9213,11.0767 8.9183,11.0757 8.9163,11.0737 C8.9143,11.0707 8.9133,11.0677 8.9133,11.0647 L9.6133,4.7967 C9.6143,4.7917 9.6183,4.7877 9.6233,4.7877 C9.6283,4.7877 9.6333,4.7907 9.6343,4.7947 L11.1623,10.8397 C11.1633,10.8427 11.1623,10.8467 11.1613,10.8487 C11.1593,10.8517 11.1563,10.8527 11.1533,10.8537 L8.9253,11.0767 L8.9233,11.0767 Z" id="Fill-2"/><path d="M7.8626,0.3586 C7.8626,0.3586 7.9546,2.2096 7.5446,2.5976 C5.8246,2.4076 1.9526,3.0466 0.0106,3.9036 C0.7746,2.1306 7.8626,0.3586 7.8626,0.3586" id="Fill-4"/><g id="Group-8"><path d="M7.8524,0.3713 C7.6894,0.4133 5.9904,0.8483 4.2264,1.4753 C1.8134,2.3353 0.3654,3.1663 0.0314,3.8823 C1.9254,3.0563 5.7694,2.3923 7.5404,2.5873 C7.9214,2.2163 7.8594,0.5363 7.8524,0.3713 M0.0104,3.9143 C0.0074,3.9143 0.0054,3.9123 0.0034,3.9103 C-0.0006,3.9073 -0.0006,3.9033 0.0004,3.8983 C0.3184,3.1613 1.7384,2.3393 4.2194,1.4563 C6.0664,0.7993 7.8424,0.3523 7.8594,0.3483 C7.8634,0.3473 7.8664,0.3483 7.8684,0.3503 C7.8714,0.3513 7.8734,0.3543 7.8734,0.3573 C7.8764,0.4333 7.9614,2.2183 7.5514,2.6053 C7.5494,2.6073 7.5454,2.6093 7.5424,2.6083 C5.7684,2.4113 1.8994,3.0823 0.0154,3.9133 C0.0134,3.9133 0.0124,3.9143 0.0104,3.9143" id="Fill-6"/></g><path d="M4.8997,8.6438 C4.3457,8.6778 3.7937,8.5748 3.2787,8.4048 C3.4687,8.4608 3.6717,8.4918 3.8827,8.4918 C4.9357,8.4918 5.7927,7.7398 5.7927,6.8168 C5.7927,6.4448 5.5037,5.9998 5.2307,5.6918 C6.5807,5.8158 7.7657,6.5188 8.2027,6.8078 C7.8117,7.2718 6.5937,8.5398 4.8997,8.6438 M2.0237,6.3568 C1.9927,6.5158 1.9737,6.6898 1.9737,6.8168 C1.9737,7.4868 2.4247,8.0658 3.0737,8.3328 C2.0807,7.9648 1.2587,7.3728 0.9077,7.0968 C1.1117,6.9228 1.4927,6.6308 2.0237,6.3568 M8.6377,6.5928 C8.5667,6.5398 6.8727,5.2738 4.8837,5.2478 C2.1497,5.2168 0.5007,6.8868 0.4307,6.9578 C0.3907,6.9988 0.3697,7.0558 0.3717,7.1138 C0.3737,7.1708 0.3997,7.2258 0.4427,7.2638 C0.5297,7.3408 2.5167,9.0748 4.6817,9.0748 C4.7627,9.0748 4.8447,9.0718 4.9257,9.0668 C7.1967,8.9258 8.6227,6.9688 8.6827,6.8858 C8.7497,6.7918 8.7297,6.6628 8.6377,6.5928" id="Fill-9"/><path d="M14.221,8.217 C13.735,8.251 13.248,8.132 12.802,7.946 C12.879,7.961 12.957,7.971 13.035,7.971 C13.884,7.971 14.573,7.281 14.573,6.433 C14.573,6.062 14.443,5.714 14.209,5.439 C14.303,5.433 14.399,5.43 14.495,5.43 L14.496,5.43 C15.566,5.43 16.546,6.185 16.889,6.482 C16.584,6.905 15.595,8.118 14.221,8.217 M11.018,6.776 C11.129,6.681 11.296,6.548 11.511,6.402 C11.553,6.758 11.706,7.116 11.948,7.407 C12.013,7.487 12.083,7.556 12.156,7.619 C11.641,7.315 11.231,6.969 11.018,6.776 M17.318,6.298 C17.264,6.245 15.997,5.006 14.496,5.006 L14.495,5.006 C12.172,5.006 10.62,6.558 10.555,6.624 C10.474,6.706 10.474,6.838 10.554,6.921 C10.573,6.94 11.013,7.389 11.684,7.826 C12.519,8.371 13.313,8.647 14.046,8.647 C14.115,8.647 14.183,8.645 14.251,8.64 C16.129,8.505 17.3,6.639 17.349,6.56 C17.401,6.476 17.388,6.367 17.318,6.298" id="Fill-11"/><path d="M10.8109,0.3586 C10.8109,0.3586 10.7179,2.2096 11.1289,2.5976 C12.8479,2.4076 15.6169,2.8636 17.5589,3.7196 C16.7949,1.9476 10.8109,0.3586 10.8109,0.3586" id="Fill-13"/><g id="Group-17" transform="translate(10.000000, 0.000000)"><path d="M1.9872,2.5442 C3.7012,2.5442 5.9272,2.9942 7.5382,3.6992 C7.2082,2.9832 5.9502,2.1842 3.8942,1.3842 C2.3992,0.8032 0.9702,0.4122 0.8202,0.3722 C0.8142,0.5382 0.7522,2.2162 1.1332,2.5872 C1.3972,2.5582 1.6842,2.5442 1.9872,2.5442 M7.5582,3.7312 C7.5572,3.7312 7.5552,3.7312 7.5542,3.7302 C5.6592,2.8952 2.8982,2.4122 1.1302,2.6082 C1.1272,2.6092 1.1242,2.6072 1.1222,2.6062 C0.9492,2.4422 0.8432,2.0152 0.8052,1.3332 C0.7772,0.8272 0.8002,0.3622 0.8002,0.3572 C0.8002,0.3552 0.8022,0.3522 0.8042,0.3502 C0.8072,0.3482 0.8102,0.3472 0.8142,0.3482 C0.8282,0.3522 2.3282,0.7522 3.9022,1.3642 C5.3562,1.9302 7.1722,2.7972 7.5682,3.7162 C7.5702,3.7202 7.56924052,3.7252 7.5662,3.7282 C7.5642,3.7302 7.5612,3.7312 7.5582,3.7312" id="Fill-15"/></g><path d="M5.974,13.3127 C7.031,14.3127 7.89,14.8687 9.322,14.9637 C10.754,15.0597 11.757,14.5357 11.757,14.5357 C11.757,14.5357 10.611,16.4807 9.226,16.8417 C6.362,17.5907 6.497,15.3437 5.974,13.3127" id="Fill-18"/><path d="M5.993,13.3459 C6.075,13.6659 6.14,13.9919 6.203,14.3069 C6.411,15.3389 6.607,16.3149 7.294,16.7429 C7.744,17.0249 8.375,17.0539 9.223,16.8319 C10.493,16.4999 11.575,14.8109 11.729,14.5609 C11.544,14.6489 10.597,15.0589 9.321,14.9749 C7.881,14.8779 7.035,14.3279 5.993,13.3459 M8.224,16.9999 C7.849,16.9999 7.537,16.9199 7.283,16.7609 C6.588,16.3269 6.391,15.3479 6.182,14.3109 C6.117,13.9849 6.049,13.6469 5.964,13.3159 C5.962,13.3109 5.965,13.3069 5.969,13.3039 C5.972,13.3019 5.978,13.3019 5.981,13.3059 C7.033,14.2999 7.876,14.8569 9.323,14.9529 C10.736,15.0479 11.742,14.5319 11.752,14.5269 C11.757,14.5239 11.762,14.5249 11.764,14.5289 C11.768,14.5319 11.768,14.5369 11.766,14.5409 C11.755,14.5609 10.602,16.4929 9.229,16.8529 C8.853,16.9499 8.519,16.9999 8.224,16.9999" id="Fill-20"/></g></g></g></g><g id="Glasses" transform="translate(261.000000, 385.000000) scale(1 1)"><g id="Glasses/None" stroke="none" stroke-width="1" fill="none" fill-rule="evenodd" fill-opacity="0"/></g></g></svg>