<svg viewBox="71.23477157360406 108.1875 417.33502538071065 331.775" xmlns="http://www.w3.org/2000/svg" overflow="visible" xmlns:xlink="http://www.w3.org/1999/xlink" width="417.33502538071065px" height="331.775px"><g id="Master/Character/Avatar" stroke="none" stroke-width="1" fill="none" fill-rule="evenodd"><g id="Background" transform="translate(122.000000, 92.000000) scale(1.6363636363636365 1.6363636363636365)"><g id="Background/Backdrop 1" stroke="none" stroke-width="1" fill="none" fill-rule="evenodd"><path d="M0,207 C26.3485939,77.6666667 44.878685,13 55.5902731,13 C71.6576552,13 122.854503,69.6672815 137.929629,69.6672815 C147.979713,69.6672815 175.336503,115.444854 220,207 L0,207 Z" id="Path-6" fill="#FFDA2D"/></g></g><g id="Head" transform="translate(196.000000, 171.000000) scale(4.742857142857143 4.807017543859649)" fill="#000"><g id="Head/Floating Hair" stroke="none" stroke-width="1" fill="none" fill-rule="evenodd"><g id="Group-3" transform="translate(-25.000000, 0.000000)" fill="#000"><path d="M18.9739,45.282 C13.5269,48.495 10.8949,47.587 7.9149,41.356 C7.5069,41.386 7.0449,41.414 6.5839,41.456 C4.1959,41.678 2.3799,40.665 1.0639,38.758 C-0.2891,36.797 -0.3341,34.649 0.8289,32.639 C1.5109,31.46 1.6639,30.442 1.4519,29.095 C0.8679,25.39 3.8359,21.472 7.7929,20.744 C10.4539,20.255 13.1839,19.796 15.8699,19.855 C21.9559,19.991 26.4759,17.205 30.0769,12.695 C32.1139,10.143 33.8649,7.351 35.6089,4.582 C37.4649,1.637 39.9879,0.011 43.5009,0.012 C45.5789,0.012 47.6589,-0.024 49.7369,0.028 C52.5639,0.097 55.0469,1.094 57.1149,3.037 C58.9949,4.805 60.1249,6.904 60.1149,9.582 C60.1059,11.894 60.1709,14.216 60.3779,16.518 C60.6709,19.769 62.5309,21.987 65.4829,23.202 C66.9429,23.803 68.5339,24.102 70.0789,24.476 C71.3189,24.776 72.6189,24.867 73.8259,25.253 C77.0169,26.273 78.4239,28.379 78.4169,31.71 C78.4149,32.356 78.5669,33.135 78.9429,33.626 C80.6969,35.915 80.4599,38.338 78.1639,40.039 C77.5919,40.463 76.9339,40.77 76.2279,41.183 C76.1699,41.513 76.0829,41.895 76.0379,42.282 C75.5739,46.202 72.7769,48.694 68.8929,48.44 C67.5549,48.353 66.5239,48.58 65.3799,49.341 C62.8679,51.012 59.9819,51.153 57.0609,50.767 C56.6059,50.707 56.1589,50.592 55.6619,50.493 C55.1099,52.296 56.8939,53.908 55.8489,55.656 C54.7139,55.775 54.4649,54.985 54.2519,54.222 C53.7599,52.452 53.3399,50.662 52.8269,48.9 C52.0029,46.073 51.1279,43.26 50.2129,40.238 C47.1579,40.695 44.4439,39.827 41.8609,38.507 C40.8019,37.965 39.7799,37.315 38.8459,36.58 C38.2279,36.093 37.1129,35.501 38.0139,34.499 C38.7689,33.661 39.3859,34.628 40.0569,34.982 C42.0899,36.055 44.0899,37.254 46.2379,38.035 C48.9749,39.032 50.3289,38.277 51.6519,35.753 C54.1119,31.061 54.8939,25.917 55.6779,20.79 C56.0629,18.27 56.1129,15.698 56.2859,13.148 C56.3169,12.69 56.2079,12.222 56.1539,11.646 C52.8049,11.653 50.1069,10.086 47.3959,8.579 C44.6849,7.071 44.0059,7.117 41.6029,9.059 C39.4209,10.822 38.0589,13.176 36.9789,15.677 C35.9349,18.093 35.1019,20.599 34.1719,23.065 C34.0099,23.493 33.8259,23.912 33.5879,24.486 C32.3749,23.807 32.5609,22.637 32.1999,21.756 C31.6329,20.373 30.5039,19.571 29.2929,19.712 C28.0669,19.854 26.9269,20.923 26.6689,22.186 C26.4149,23.434 27.0089,24.392 27.8749,25.139 C28.4009,25.592 29.1119,26.037 29.7699,26.089 C31.6349,26.236 32.3399,27.489 32.8909,28.963 C33.9199,31.719 34.5539,34.487 33.0639,37.303 C32.4899,38.386 32.6649,39.354 33.2839,40.449 C35.1479,43.757 34.5779,46.567 31.2639,48.408 C29.0879,49.618 28.1779,51.219 27.9069,53.476 C27.8609,53.865 27.7999,54.308 27.5809,54.604 C27.3759,54.879 26.9209,55.171 26.6319,55.123 C26.3549,55.077 25.9469,54.6 25.9499,54.317 C25.9599,53.451 26.0179,52.548 26.2839,51.732 C26.7269,50.368 26.2949,49.428 25.2019,48.653 C24.0419,47.832 23.0459,46.815 21.5159,46.537 C20.6219,46.376 19.8189,45.717 18.9739,45.282" id="Fill-1"/></g></g></g><g id="Face" transform="translate(263.000000, 229.000000) scale(4.777777777777778 4.777777777777778)" fill="#000"><g id="Face/Kind" stroke="none" stroke-width="1" fill="none" fill-rule="evenodd"><g id="Group-14" transform="translate(-1.000000, -2.000000)" fill="#000"><g id="Group-3" transform="translate(0.000000, 0.826700)"><path d="M2.9468,4.9331 C2.8728,4.9681 2.7978,5.0001 2.7248,5.0371 C2.7978,5.0001 2.8728,4.9681 2.9468,4.9331 L2.9468,4.9331 Z M2.2548,5.2951 C2.1438,5.3601 2.0348,5.4321 1.9268,5.5031 C2.0348,5.4321 2.1438,5.3601 2.2548,5.2951 L2.2548,5.2951 Z M1.3118,5.9561 C1.1808,6.0631 1.0508,6.1721 0.9278,6.2901 C1.0508,6.1721 1.1808,6.0631 1.3118,5.9561 L1.3118,5.9561 Z M0.5868,6.6471 C0.4758,6.7721 0.3698,6.9071 0.2668,7.0441 C0.3698,6.9071 0.4758,6.7721 0.5868,6.6471 L0.5868,6.6471 Z M8.8638,3.3911 C9.1358,3.2861 9.4338,2.7271 9.5868,2.0321 C9.7708,1.2071 9.6858,0.5141 9.3598,0.1771 C9.3568,0.1751 9.3538,0.1731 9.3508,0.1741 C9.3468,0.1741 9.3438,0.1761 9.3418,0.1791 C8.4728,1.6591 6.7308,2.1161 5.0448,2.5581 C4.1508,2.7931 3.2408,3.0431 2.4678,3.4371 C2.4308,3.4561 2.3968,3.4751 2.3608,3.4951 C2.2408,3.5591 2.1138,3.6171 2.0018,3.6901 C0.4748,4.6891 0.1898,6.3111 -0.0002,7.3861 C-0.0012,7.3911 0.0018,7.3951 0.0078,7.3971 C0.0088,7.3981 0.0098,7.3981 0.0118,7.3981 C0.0158,7.3981 0.0188,7.3961 0.0218,7.3931 C1.7588,4.7331 5.0088,4.1571 7.1588,3.7751 C7.8598,3.6501 8.4668,3.5431 8.8638,3.3911 L8.8638,3.3911 Z" id="Fill-1"/></g><path d="M11.2918,7.2554 C11.2868,7.2554 11.2818,7.2604 11.2818,7.2654 L10.5298,13.9934 C10.5288,13.9974 10.5308,14.0004 10.5328,14.0034 C10.5348,14.0054 10.5378,14.0064 10.5408,14.0064 L10.5428,14.0064 L12.9348,13.7674 C12.9378,13.7674 12.9408,13.7654 12.9428,13.7634 C12.9438,13.7604 12.9448,13.7564 12.9438,13.7534 L11.3038,7.2644 C11.3028,7.2584 11.2978,7.2544 11.2918,7.2554" id="Fill-4"/><path d="M11.7547,15.8785 C10.7447,16.4055 9.8277,16.5295 9.0337,16.2465 C7.8567,15.8325 7.3077,14.6495 7.2837,14.5975 L7.2337,14.4865 L6.8387,14.6575 L6.8897,14.7745 C6.9537,14.9165 7.5507,16.1815 8.8877,16.6535 C9.2117,16.7685 9.5557,16.8265 9.9077,16.8265 C10.5467,16.8265 11.2347,16.6365 11.9547,16.2625 L12.0667,16.2035 L11.8647,15.8215 L11.7547,15.8785 Z" id="Fill-6"/><path d="M2.8611,7.8843 C2.8181,8.0723 2.7911,8.2923 2.7911,8.4473 C2.7911,9.4393 3.7101,10.2453 4.8401,10.2453 C5.9701,10.2453 6.8901,9.4393 6.8901,8.4473 C6.8901,8.0203 6.5391,7.5143 6.2291,7.1833 C7.7841,7.3093 9.1651,8.1533 9.5691,8.4243 C9.2101,8.8623 7.8491,10.3523 5.9351,10.4703 C5.8571,10.4753 5.7791,10.4783 5.7011,10.4783 C3.8431,10.4783 2.0451,9.1473 1.5491,8.7503 C1.7491,8.5763 2.2061,8.2183 2.8611,7.8843 M9.9431,8.4863 C9.9951,8.4133 9.9791,8.3133 9.9061,8.2563 C9.8291,8.1983 7.9891,6.8523 5.9141,6.8253 L5.8311,6.8253 C3.0181,6.8253 1.2541,8.5673 1.1771,8.6433 C1.1471,8.6763 1.1301,8.7203 1.1321,8.7643 C1.1331,8.8103 1.1551,8.8543 1.1851,8.8783 C1.1891,8.8833 1.7791,9.4043 2.6561,9.8973 C3.3961,10.3133 4.5261,10.8103 5.7041,10.8103 C5.7881,10.8103 5.8731,10.8083 5.9561,10.8023 C8.3401,10.6553 9.8781,8.5753 9.9431,8.4863" id="Fill-8"/><path d="M13.0281,7.9351 C13.0601,8.3401 13.2221,8.7511 13.4981,9.0811 C13.8221,9.4721 14.2371,9.6871 14.6661,9.6871 C15.5761,9.6871 16.3161,8.9471 16.3161,8.0371 C16.3161,7.6151 16.1541,7.2261 15.8751,6.9231 C15.9941,6.9141 16.1091,6.8981 16.2331,6.8981 C17.4531,6.8981 18.5721,7.8021 18.8841,8.0791 C18.6001,8.4841 17.4971,9.9011 15.9431,10.0121 C15.8821,10.0171 15.8211,10.0191 15.7591,10.0191 C14.2661,10.0191 12.8141,8.7801 12.4081,8.4031 C12.5251,8.3001 12.7431,8.1261 13.0281,7.9351 M16.2331,6.5651 C13.7801,6.5661 12.0621,8.2691 12.0481,8.2851 C11.9831,8.3481 11.9831,8.4541 12.0461,8.5161 C12.0501,8.5211 12.5181,9.0031 13.2481,9.4801 C13.8561,9.8771 14.7851,10.3511 15.7571,10.3511 C15.8271,10.3511 15.8971,10.3491 15.9661,10.3441 C17.9031,10.2051 19.1121,8.3511 19.2451,8.1381 C19.2841,8.0731 19.2741,7.9891 19.2191,7.9341 C19.0771,7.7941 17.7811,6.5651 16.2331,6.5651" id="Fill-10"/><path d="M18.8367,6.7896 C18.7807,6.7396 18.7237,6.6956 18.6667,6.6476 C18.7237,6.6956 18.7807,6.7396 18.8367,6.7896 M19.4807,7.4466 C19.4007,7.3576 19.3217,7.2686 19.2417,7.1856 C19.3217,7.2686 19.4007,7.3576 19.4807,7.4466 M17.8557,6.0516 C17.8057,6.0196 17.7557,5.9876 17.7057,5.9576 C17.7557,5.9876 17.8057,6.0196 17.8557,6.0516 M19.6807,7.0156 C19.5557,6.1276 19.4387,5.2886 18.2467,4.6476 C17.4157,4.2016 16.4997,3.9486 15.6137,3.7036 C14.0107,3.2616 12.4957,2.8426 11.4547,1.3746 C11.4527,1.3716 11.4497,1.3696 11.4457,1.3696 C11.4417,1.3686 11.4397,1.3716 11.4377,1.3736 C11.1427,1.7366 11.1167,2.4356 11.3697,3.2416 C11.5827,3.9216 11.9277,4.4526 12.2067,4.5326 C12.5907,4.6436 13.0577,4.7026 13.5977,4.7696 C15.3757,4.9936 17.8117,5.2996 19.8117,7.8516 C19.8137,7.8536 19.8167,7.8556 19.8197,7.8556 C19.8217,7.8556 19.8237,7.8546 19.8247,7.8536 C19.8307,7.8516 19.8327,7.8466 19.8317,7.8416 C19.7587,7.5676 19.7197,7.2866 19.6807,7.0156" id="Fill-12"/></g></g></g><g id="Glasses" transform="translate(248.000000, 253.000000) scale(4.75 4.75)"><g id="Glasses/Heart" stroke="none" stroke-width="1" fill="none" fill-rule="evenodd"><g id="Group-3" transform="translate(1.000000, -1.000000)" fill="#FA6400"><path d="M17.2017307,9.06751298 C17.1262795,9.12983266 17.0572955,9.186382 17.0001682,9.23369879 C16.9268727,9.16907098 16.838487,9.09290248 16.7371668,9.00750144 C15.610788,8.04616272 12.6196864,5.49336411 12.6735801,3.36757069 C12.7134615,1.80265436 13.7126511,0.577034045 14.9478952,0.577034045 C15.7045631,0.577034045 16.4105708,1.03750721 16.8341755,1.80957877 L17.0669964,2.23081362 L17.2998173,1.80957877 C17.7234219,1.03750721 18.4294297,0.577034045 19.1860976,0.577034045 C19.7519817,0.577034045 20.2963083,0.830929025 20.7199129,1.29255626 C21.2049564,1.82342758 21.4755029,2.57472591 21.4604127,3.35372187 C21.4205313,5.59723024 18.2451132,8.20888632 17.2017307,9.06751298 M5.63937139,9.05943451 C5.54236269,9.1321408 5.4572106,9.19446047 5.38607089,9.24754761 C5.29876306,9.17830352 5.18881986,9.09405655 5.06163068,8.99596076 C3.80806268,8.03462204 0.479586354,5.48413156 0.539947324,3.36872475 C0.584140177,1.80265436 1.71051899,0.577034045 3.10313279,0.577034045 C3.96219873,0.577034045 4.75874795,1.04212349 5.23624634,1.82111945 L5.4615221,2.18926717 L5.68679786,1.82111945 C6.16537412,1.04212349 6.96192335,0.577034045 7.82098929,0.577034045 C8.50759532,0.577034045 9.17803323,0.879399885 9.66092099,1.40796307 C10.141653,1.93421812 10.3981871,2.6255049 10.3830969,3.3525678 C10.3378262,5.58915176 6.80239793,8.20080785 5.63937139,9.05943451 M21.1036362,0.888632429 C20.5797893,0.315060589 19.8974947,0 19.1860976,0 C18.3658351,0 17.5973106,0.423542989 17.0669964,1.15175995 C16.5366822,0.423542989 15.7681577,0 14.9478952,0 C13.4270143,0 12.1993153,1.45527986 12.1378765,3.32025389 L10.9198784,3.34679746 C10.9338907,2.46970571 10.6234629,1.63877669 10.0457222,1.00519331 C9.46151422,0.365839585 8.65095262,0 7.82098929,0 C6.904796,0 6.04788581,0.43508367 5.4615221,1.18061166 C4.8751584,0.43508367 4.01932608,0 3.10313279,0 C1.41733713,0 0.0549038176,1.47143681 0.00101009466,3.35025967 C-0.0668959962,5.77380265 3.30685106,8.36122331 4.74796921,9.46566647 C4.96462198,9.63185228 5.12738102,9.75649163 5.21037735,9.83035199 L5.38068152,9.98153491 L5.55206356,9.83266013 C5.6178139,9.77611079 5.75578183,9.6745528 5.94656561,9.53375649 C7.19366636,8.61165609 10.3507606,6.27582227 10.8498165,3.92613964 L12.1756021,3.89613387 C12.5215998,6.14541258 15.2033515,8.43739181 16.4019479,9.45874207 C16.5948874,9.62261973 16.7382447,9.74610502 16.8136959,9.81996538 L16.9947788,10 L17.1780175,9.82227351 C17.2351448,9.76572418 17.3591004,9.66532025 17.5304824,9.52452395 C18.7398576,8.52971725 21.9540792,5.88574726 21.9993499,3.36526255 C22.0165959,2.43162147 21.6899999,1.52914022 21.1036362,0.888632429" id="Fill-1"/></g></g></g></g></svg>